<?xml version="1.0" ?><!DOCTYPE svg  PUBLIC '-//W3C//DTD SVG 1.1//EN'  'http://www.w3.org/Graphics/SVG/1.1/DTD/svg11.dtd'><svg enable-background="new 0 0 512 512" height="512px" id="Layer_1" version="1.1" viewBox="0 0 512 512" width="512px" xml:space="preserve" xmlns="http://www.w3.org/2000/svg" xmlns:xlink="http://www.w3.org/1999/xlink"><g><g/><g><g><linearGradient gradientUnits="userSpaceOnUse" id="SVGID_1_" x1="257.208984" x2="257.208984" y1="507.708984" y2="209.551666"><stop offset="0" style="stop-color:#000000"/><stop offset="1" style="stop-color:#18191A"/></linearGradient><path d="M487.8125,501.353516c0,4.602539-3.577148,8.330078-7.998047,8.330078H34.604492     c-4.420898,0-7.999023-3.727539-7.999023-8.330078v-286.78418c0-4.605469,3.578125-8.274902,7.999023-8.274902h445.209961     c4.420898,0,7.998047,3.669434,7.998047,8.274902V501.353516z" fill="url(#SVGID_1_)"/><linearGradient gradientUnits="userSpaceOnUse" id="SVGID_2_" x1="257.208984" x2="257.208984" y1="506.149414" y2="210.8992"><stop offset="0" style="stop-color:#020203"/><stop offset="1" style="stop-color:#1D1E20"/></linearGradient><path d="M35.271484,208.376953h443.876953c3.683594,0,6.665039,4.825684,6.665039,8.663574v281.82666     c0,3.834961-2.981445,8.733398-6.665039,8.733398H35.271484c-3.68457,0-6.666016-4.879883-6.666016-8.714844v-281.82666     C28.605469,213.221191,31.586914,208.376953,35.271484,208.376953z" fill="url(#SVGID_2_)"/><linearGradient gradientUnits="userSpaceOnUse" id="SVGID_3_" x1="257.208984" x2="257.208984" y1="504.575195" y2="212.265656"><stop offset="0" style="stop-color:#050506"/><stop offset="1" style="stop-color:#222327"/></linearGradient><path d="M35.9375,210.459961h442.543945c2.947266,0,5.332031,5.981445,5.332031,9.051758v276.868164     c0,3.068359-2.384766,9.137695-5.332031,9.137695H35.9375c-2.947266,0-5.33252-6.032227-5.33252-9.100586V219.548828     C30.60498,216.478516,32.990234,210.459961,35.9375,210.459961z" fill="url(#SVGID_3_)"/><linearGradient gradientUnits="userSpaceOnUse" id="SVGID_4_" x1="257.208008" x2="257.208008" y1="502.986328" y2="213.650482"><stop offset="0" style="stop-color:#070709"/><stop offset="1" style="stop-color:#26282D"/></linearGradient><path d="M36.603516,212.541992h441.210938c2.209961,0,3.998047,7.137695,3.998047,9.44043v271.910156     c0,2.301758-1.788086,9.541016-3.998047,9.541016H36.603516c-2.209961,0-3.999023-7.183594-3.999023-9.484375V222.038086     C32.604492,219.735352,34.393555,212.541992,36.603516,212.541992z" fill="url(#SVGID_4_)"/><linearGradient gradientUnits="userSpaceOnUse" id="SVGID_5_" x1="257.208984" x2="257.208984" y1="501.385742" y2="215.055634"><stop offset="0" style="stop-color:#0A0A0C"/><stop offset="1" style="stop-color:#2B2D33"/></linearGradient><path d="M37.270508,214.625h439.87793c1.472656,0,2.666016,8.293457,2.666016,9.828613V491.40625     c0,1.535156-1.193359,9.945312-2.666016,9.945312H37.270508c-1.473633,0-2.666016-8.335938-2.666016-9.871094V224.527832     C34.604492,222.992676,35.796875,214.625,37.270508,214.625z" fill="url(#SVGID_5_)"/><linearGradient gradientUnits="userSpaceOnUse" id="SVGID_6_" x1="257.208984" x2="257.208984" y1="499.770508" y2="216.480194"><stop offset="0" style="stop-color:#0D0D0F"/><stop offset="1" style="stop-color:#30323A"/></linearGradient><path d="M37.937012,216.708008h438.543457c0.737305,0,1.333984,9.44873,1.333984,10.216309v261.995605     c0,0.767578-0.59668,10.348633-1.333984,10.348633H37.937012c-0.736816,0-1.333008-9.488281-1.333008-10.254883V227.017578     C36.604004,226.25,37.200195,216.708008,37.937012,216.708008z" fill="url(#SVGID_6_)"/><linearGradient gradientUnits="userSpaceOnUse" id="SVGID_7_" x1="257.208984" x2="257.208984" y1="498.140625" y2="217.922607"><stop offset="0" style="stop-color:#0F0F12"/><stop offset="1" style="stop-color:#353740"/></linearGradient><rect fill="url(#SVGID_7_)" height="278.39502" width="437.210938" x="38.603516" y="218.790527"/></g><linearGradient gradientUnits="userSpaceOnUse" id="SVGID_8_" x1="41.274414" x2="475.168671" y1="357.988281" y2="357.988281"><stop offset="0" style="stop-color:#FFFFFF;stop-opacity:0.2"/><stop offset="0.290909" style="stop-color:#FFFFFF"/><stop offset="0.757576" style="stop-color:#FFFFFF;stop-opacity:0.8"/><stop offset="1" style="stop-color:#FFFFFF;stop-opacity:0.2"/></linearGradient><path d="M38.603516,218.790527v278.39502h437.210938v-278.39502H38.603516z     M471.81543,493.022461H42.603027V222.956055H471.81543V493.022461z" fill="url(#SVGID_8_)" opacity="0.15"/><g><path d="M461.639648,327.984375v-4.265625H52.737305v4.265625h84.770996v75.711914H52.737305     v4.266602h84.770996h4.265137h102.540527h4.26709h213.058594v-4.266602H248.581055v-75.711914H461.639648z      M244.313965,403.696289H141.773438v-75.711914h102.540527V403.696289z" fill="#FFFFFF" opacity="0.3"/><polyline fill="#FFFFFF" opacity="0.3" points="52.737305,467.947266 52.737305,463.679688 461.639648,463.679688      461.639648,467.947266    "/><path d="M67.535156,312.168945h-2.313965v-8.178711h-9.040527v8.178711h-2.303711v-17.385742     h2.303711v7.146484h9.040527v-7.146484h2.313965V312.168945z" fill="#FFFFFF" opacity="0.8"/><path d="M78.948242,294.480469c2.430176,0,4.433105,0.828125,5.983398,2.480469     c1.541992,1.647461,2.322266,3.834961,2.322266,6.541016c0,2.703125-0.780273,4.861328-2.330566,6.500977     c-1.562988,1.649414-3.555176,2.460938-5.975098,2.460938c-2.500977,0-4.520508-0.850586-6.035645-2.540039     c-1.540039-1.708008-2.293457-3.777344-2.293457-6.236328c0-2.851562,0.77002-5.097656,2.314453-6.737305     C74.48584,295.300781,76.478027,294.480469,78.948242,294.480469z M78.927246,310.500977     c1.757812,0,3.191895-0.614258,4.287598-1.845703c1.091797-1.238281,1.647949-2.949219,1.658691-5.15332     c0-2.265625-0.566895-4.004883-1.679199-5.223633c-1.123047-1.211914-2.527832-1.81543-4.208984-1.81543     c-1.747559,0-3.181641,0.584961-4.304688,1.78418c-1.132812,1.191406-1.678711,3.017578-1.678711,5.487305     c0,2.021484,0.545898,3.65332,1.649902,4.892578C75.745605,309.875977,77.179688,310.500977,78.927246,310.500977z" fill="#FFFFFF" opacity="0.8"/><path d="M103.969238,304.838867c0,0.888672-0.049805,1.726562-0.136719,2.478516     c-0.10791,0.771484-0.369629,1.543945-0.788574,2.353516c-0.423828,0.791992-1.114746,1.464844-2.062988,1.992188     c-0.955078,0.545898-2.225098,0.800781-3.806641,0.800781c-1.570801,0-2.801758-0.245117-3.758301-0.713867     c-0.946777-0.477539-1.650391-1.083008-2.07959-1.826172c-0.458984-0.759766-0.73291-1.540039-0.857422-2.362305     c-0.120117-0.800781-0.178223-1.717773-0.178223-2.722656v-10.055664h2.305664v10.026367     c0,1.043945,0.068359,1.943359,0.213867,2.694336c0.147461,0.761719,0.556152,1.425781,1.191406,2.010742     c0.643066,0.585938,1.620605,0.87793,2.967773,0.87793c1.34668,0,2.361816-0.232422,3.046387-0.701172     c0.672852-0.460938,1.112793-1.083008,1.326172-1.866211c0.205566-0.780273,0.313477-1.776367,0.313477-3.015625v-10.026367     h2.303711V304.838867z" fill="#FFFFFF" opacity="0.8"/><path d="M123.191895,312.168945h-2.899414c-1.736816-2.733398-2.812012-4.412109-3.231445-5.036133     c-0.418945-0.625-0.858887-1.163086-1.317871-1.611328c-0.458496-0.4375-0.898438-0.732422-1.307617-0.848633     c-0.400391-0.118164-0.948242-0.186523-1.612305-0.186523h-2.665039v7.682617h-2.292969v-17.385742h7.693359     c1.043945,0,1.932129,0.066406,2.644043,0.204102c0.713867,0.136719,1.338867,0.410156,1.876465,0.848633     c0.535156,0.418945,0.946289,0.966797,1.23877,1.623047c0.29248,0.664062,0.429688,1.357422,0.429688,2.087891     c0,1.307617-0.411133,2.361328-1.241211,3.163086c-0.828125,0.800781-2.04834,1.298828-3.629883,1.514648v0.047852     c1.160156,0.508789,2.255859,1.571289,3.269043,3.163086L123.191895,312.168945z M110.158203,302.435547h4.939453     c0.988281,0,1.778809-0.086914,2.364258-0.263672c0.587402-0.155273,1.043945-0.496094,1.396484-0.985352     c0.340332-0.486328,0.51709-1.03418,0.51709-1.639648c0-0.791016-0.282227-1.473633-0.859375-2.030273     c-0.585449-0.547852-1.533691-0.821289-2.859863-0.821289h-5.498047V302.435547z" fill="#FFFFFF" opacity="0.8"/><path d="M163.073242,312.208984h-2.1875v-14.56543h-0.049805l-5.005859,14.56543h-2.060547     l-4.987305-14.799805h-0.070801v14.799805h-2.174805v-17.385742h3.43457l4.111328,12.30957     c0.457031,1.367188,0.730957,2.226562,0.80127,2.566406h0.047852c0.213867-0.662109,0.516602-1.601562,0.927734-2.780273     l4.148926-12.095703h3.064941V312.208984z" fill="#FFFFFF" opacity="0.8"/><path d="M169.45752,312.208984h-2.312012v-17.385742h2.312012V312.208984z" fill="#FFFFFF" opacity="0.8"/><path d="M187.264648,312.208984h-2.361816l-9.088379-13.658203h-0.047852v13.658203h-2.179199     v-17.385742h2.343262l9.088379,13.635742h0.039551v-13.635742h2.206055V312.208984z" fill="#FFFFFF" opacity="0.8"/><path d="M204.810547,304.875977c0,0.890625-0.058105,1.729492-0.157715,2.480469     c-0.095703,0.761719-0.361328,1.53418-0.780762,2.342773c-0.429199,0.801758-1.112305,1.473633-2.058594,2.000977     c-0.958984,0.540039-2.227051,0.791016-3.829102,0.791016c-1.541992,0-2.801758-0.234375-3.748047-0.702148     c-0.94873-0.478516-1.639648-1.083008-2.080078-1.844727c-0.450195-0.743164-0.722168-1.523438-0.848633-2.342773     c-0.116211-0.820312-0.186523-1.71875-0.186523-2.725586v-10.052734h2.303711v10.024414     c0,1.045898,0.070312,1.933594,0.236328,2.693359c0.137207,0.743164,0.527344,1.427734,1.181152,2.013672     c0.634766,0.574219,1.620605,0.867188,2.949219,0.867188c1.365234,0,2.370117-0.224609,3.062988-0.693359     c0.674805-0.46875,1.125-1.091797,1.328613-1.874023c0.194824-0.769531,0.302734-1.776367,0.302734-3.006836v-10.024414h2.324707     V304.875977z" fill="#FFFFFF" opacity="0.8"/><path d="M221.044434,296.881836h-5.759277v15.327148h-2.303711v-15.327148h-5.701172v-2.058594     h13.76416V296.881836z" fill="#FFFFFF" opacity="0.8"/><path d="M236.481445,312.208984h-12.98584v-17.385742h12.59375v2.058594H225.80127v5.321289     h9.625977v2.048828h-9.625977v5.887695h10.680176V312.208984z" fill="#FFFFFF" opacity="0.8"/><path d="M275.043945,299.878906c-0.097656-1.104492-0.498047-1.932617-1.199219-2.499023     c-0.704102-0.547852-1.710938-0.822266-3.017578-0.822266c-1.191406,0-2.15918,0.21582-2.899414,0.65625     c-0.743164,0.448242-1.115234,1.083008-1.115234,1.932617c0,0.75293,0.285156,1.30957,0.859375,1.678711     c0.569336,0.371094,1.670898,0.734375,3.291992,1.104492c1.444336,0.310547,2.615234,0.634766,3.523438,0.966797     c0.90918,0.332031,1.689453,0.848633,2.34375,1.552734c0.634766,0.69043,0.964844,1.628906,0.964844,2.80957     c0,1.494141-0.59375,2.744141-1.785156,3.729492c-1.19043,0.986328-2.743164,1.475586-4.646484,1.475586     c-2.451172,0-4.277344-0.537109-5.498047-1.630859c-1.209961-1.085938-1.855469-2.499023-1.921875-4.246094l2.177734-0.195312     c0.105469,1.394531,0.642578,2.411133,1.620117,3.043945c0.96582,0.645508,2.146484,0.957031,3.524414,0.957031     c1.27832,0,2.322266-0.263672,3.113281-0.788086c0.791016-0.538086,1.201172-1.251953,1.201172-2.168945     c0-0.946289-0.410156-1.629883-1.250977-2.069336c-0.828125-0.44043-2.224609-0.870117-4.175781-1.299805     c-1.953125-0.410156-3.370117-1.003906-4.229492-1.776367c-0.868164-0.761719-1.297852-1.757812-1.297852-2.986328     c0-1.396484,0.545898-2.550781,1.639648-3.458008c1.085938-0.90625,2.578125-1.365234,4.462891-1.365234     c1.923828,0,3.475586,0.458984,4.657227,1.365234c1.171875,0.907227,1.794922,2.198242,1.863281,3.858398L275.043945,299.878906z     " fill="#FFFFFF" opacity="0.8"/><path d="M293.963867,312.168945h-12.994141v-17.385742h12.595703v2.05957h-10.290039v5.321289     h9.625977v2.060547h-9.625977v5.885742h10.688477V312.168945z" fill="#FFFFFF" opacity="0.8"/><path d="M311.849609,306.665039c-0.505859,1.951172-1.386719,3.40625-2.654297,4.363281     c-1.251953,0.956055-2.775391,1.435547-4.520508,1.435547c-2.849609,0-4.928711-0.879883-6.228516-2.674805     c-1.30957-1.779297-1.953125-3.916992-1.953125-6.436523c0-2.761719,0.761719-4.939453,2.293945-6.509766     c1.53125-1.571289,3.495117-2.362305,5.898438-2.362305c1.6875,0,3.141602,0.429688,4.341797,1.296875     c1.203125,0.859375,2.049805,2.121094,2.519531,3.788086l-2.246094,0.529297     c-0.379883-1.211914-0.954102-2.108398-1.726562-2.725586c-0.772461-0.616211-1.74707-0.90625-2.899414-0.90625     c-1.90332,0-3.347656,0.614258-4.325195,1.863281c-0.985352,1.239258-1.462891,2.910156-1.462891,5.018555     c0,2.411133,0.505859,4.207031,1.53125,5.387695c1.03418,1.182617,2.382812,1.768555,4.041016,1.768555     c1.368164,0,2.47168-0.37207,3.310547-1.104492c0.859375-0.741211,1.453125-1.844727,1.796875-3.329102L311.849609,306.665039z" fill="#FFFFFF" opacity="0.8"/><path d="M322.268555,294.480469c2.44043,0,4.430664,0.828125,5.972656,2.480469     c1.563477,1.647461,2.333008,3.834961,2.333008,6.541016c0,2.703125-0.769531,4.861328-2.333008,6.500977     c-1.560547,1.649414-3.552734,2.460938-5.972656,2.460938c-2.500977,0-4.520508-0.850586-6.043945-2.540039     c-1.523438-1.708008-2.294922-3.777344-2.294922-6.236328c0-2.851562,0.780273-5.097656,2.324219-6.737305     C317.795898,295.300781,319.806641,294.480469,322.268555,294.480469z M322.257812,310.500977     c1.757812,0,3.181641-0.614258,4.286133-1.845703c1.083008-1.238281,1.639648-2.949219,1.647461-5.15332     c0-2.265625-0.564453-4.004883-1.676758-5.223633c-1.125-1.211914-2.530273-1.81543-4.208984-1.81543     c-1.74707,0-3.183594,0.584961-4.304688,1.78418c-1.12207,1.191406-1.680664,3.017578-1.680664,5.487305     c0,2.021484,0.547852,3.65332,1.641602,4.892578C319.063477,309.875977,320.5,310.500977,322.257812,310.500977z" fill="#FFFFFF" opacity="0.8"/><path d="M347.297852,312.168945h-2.361328l-9.09082-13.658203h-0.047852v13.658203h-2.185547     v-17.385742h2.362305l9.078125,13.648438h0.049805v-13.648438h2.195312V312.168945z" fill="#FFFFFF" opacity="0.8"/><path d="M351.174805,294.783203h6.001953c1.056641,0,1.963867,0.047852,2.714844,0.15625     c0.772461,0.116211,1.486328,0.369141,2.1875,0.780273c0.693359,0.418945,1.299805,0.996094,1.816406,1.717773     c0.516602,0.722656,0.916992,1.571289,1.219727,2.509766c0.292969,0.946289,0.451172,2.089844,0.451172,3.436523     c0,2.567383-0.617188,4.666016-1.827148,6.307617c-1.230469,1.647461-3.320312,2.477539-6.296875,2.477539h-6.267578V294.783203z      M353.478516,310.110352h3.729492c0.761719,0,1.43457-0.049805,2.032227-0.145508     c0.603516-0.099609,1.199219-0.352539,1.813477-0.771484c0.616211-0.411133,1.115234-1.104492,1.53418-2.060547     c0.389648-0.957031,0.603516-2.214844,0.603516-3.788086c0-0.87793-0.076172-1.689453-0.242188-2.451172     c-0.15625-0.750977-0.44043-1.43457-0.849609-2.060547c-0.410156-0.614258-0.887695-1.083984-1.435547-1.366211     c-0.527344-0.282227-1.054688-0.458008-1.571289-0.527344c-0.498047-0.068359-1.152344-0.09668-1.953125-0.09668h-3.661133     V310.110352z" fill="#FFFFFF" opacity="0.8"/><path d="M52.967773,430.369141h6.006348c1.054199,0,1.961426,0.049805,2.723145,0.15625     c0.750977,0.105469,1.473145,0.371094,2.166504,0.780273c0.693359,0.420898,1.299316,0.985352,1.815918,1.717773     c0.527344,0.722656,0.927734,1.563477,1.230957,2.509766c0.282227,0.946289,0.439941,2.089844,0.439941,3.436523     c0,2.567383-0.605957,4.666016-1.836914,6.305664c-1.209961,1.651367-3.310059,2.481445-6.27832,2.481445h-6.267578V430.369141z      M55.271484,445.685547h3.729492c0.753418,0,1.436523-0.037109,2.031738-0.136719     c0.605957-0.097656,1.199707-0.350586,1.813965-0.771484c0.616699-0.40918,1.125-1.102539,1.523438-2.05957     c0.411133-0.954102,0.605957-2.21582,0.605957-3.797852c0-0.867188-0.07666-1.676758-0.234375-2.44043     c-0.155762-0.750977-0.437988-1.43457-0.849121-2.058594c-0.418945-0.626953-0.896484-1.083984-1.434082-1.366211     c-0.537109-0.28418-1.056152-0.460938-1.572754-0.529297c-0.506836-0.068359-1.160156-0.097656-1.961426-0.097656h-3.652832     V445.685547z" fill="#FFFFFF" opacity="0.8"/><path d="M84.796387,447.756836h-2.598145l-2.050781-5.291992h-7.251465l-1.925781,5.291992     h-2.430664l6.678711-17.387695h2.480469L84.796387,447.756836z M79.45459,440.638672     c-1.423828-3.756836-2.235352-5.896484-2.399414-6.413086c-0.197266-0.508789-0.381836-1.191406-0.616211-2.040039H76.38916     c-0.234863,1.171875-0.51709,2.243164-0.898926,3.239258l-1.942383,5.213867H79.45459z" fill="#FFFFFF" opacity="0.8"/><path d="M99.07959,432.427734h-5.750977v15.329102h-2.324219v-15.329102h-5.70166v-2.058594     H99.07959V432.427734z" fill="#FFFFFF" opacity="0.8"/><path d="M114.522949,447.756836h-12.98584v-17.387695h12.585449v2.058594H103.83252V437.75     h9.625488v2.049805h-9.625488v5.885742h10.69043V447.756836z" fill="#FFFFFF" opacity="0.8"/><linearGradient gradientUnits="userSpaceOnUse" id="SVGID_9_" x1="193.043457" x2="193.043457" y1="403.956055" y2="327.74823"><stop offset="0" style="stop-color:#808080"/><stop offset="1" style="stop-color:#353740"/></linearGradient><rect fill="url(#SVGID_9_)" height="75.711914" width="102.540527" x="141.773438" y="327.984375"/><linearGradient gradientUnits="userSpaceOnUse" id="SVGID_10_" x1="95.237793" x2="95.237793" y1="403.956055" y2="327.74823"><stop offset="0" style="stop-color:#808080"/><stop offset="1" style="stop-color:#353740"/></linearGradient><rect fill="url(#SVGID_10_)" height="75.711914" width="84.540527" x="52.967773" y="327.984375"/><linearGradient gradientUnits="userSpaceOnUse" id="SVGID_11_" x1="355.110352" x2="355.110352" y1="403.956055" y2="327.74823"><stop offset="0" style="stop-color:#808080"/><stop offset="1" style="stop-color:#353740"/></linearGradient><rect fill="url(#SVGID_11_)" height="75.711914" width="213.058594" x="248.581055" y="327.984375"/><linearGradient gradientUnits="userSpaceOnUse" id="SVGID_12_" x1="70.443848" x2="70.443848" y1="396.344727" y2="341.613464"><stop offset="0" style="stop-color:#B30000"/><stop offset="1" style="stop-color:#CC0000"/></linearGradient><path d="M71.878906,366.666016l1.465332,1.630859l-2.285156,22.902344     c-0.76123,2.1875-2.26416,3.542969-4.501465,4.09082l-1.794922-6.549805l1.708008-17.171875L71.878906,366.666016z      M67.622559,360.116211l1.708008-17.174805l3.115234-6.549805c2.127441,0.558594,3.35791,1.914062,3.679688,4.098633     l-2.29541,22.896484l-1.793457,1.639648L67.622559,360.116211z" fill="url(#SVGID_12_)"/><linearGradient gradientUnits="userSpaceOnUse" id="SVGID_13_" x1="98.952148" x2="98.952148" y1="396.344727" y2="341.613464"><stop offset="0" style="stop-color:#B30000"/><stop offset="1" style="stop-color:#CC0000"/></linearGradient><path d="M107.464355,395.290039H82.92041c-2.129395-0.547852-3.35791-1.90332-3.679688-4.09082     l6.784668-2.458984h19.633301L107.464355,395.290039z M79.396484,389.560547l2.137695-21.263672l1.786621-1.630859     l4.422852,4.902344l-1.552246,15.541016L79.396484,389.560547z M90.4375,344.573242l-1.552246,15.542969l-5.398438,4.910156     l-1.475586-1.639648l2.129395-21.264648L90.4375,344.573242z M110.237305,342.941406H90.682617l-6.296875-2.451172     c0.761719-2.18457,2.26416-3.540039,4.499512-4.098633h24.467285L110.237305,342.941406z M114.404785,366.666016     l1.475586,1.630859l-2.285156,22.902344c-0.771973,2.1875-2.26416,3.542969-4.499512,4.09082l-1.805664-6.549805     l1.71875-17.171875L114.404785,366.666016z M110.158203,360.116211l1.710449-17.174805l3.112793-6.549805     c2.129395,0.558594,3.358398,1.914062,3.682129,4.098633l-2.29541,22.896484l-1.79541,1.639648L110.158203,360.116211z" fill="url(#SVGID_13_)"/><linearGradient gradientUnits="userSpaceOnUse" id="SVGID_14_" x1="124.959473" x2="124.959473" y1="396.344727" y2="341.583527"><stop offset="0" style="stop-color:#B30000"/><stop offset="1" style="stop-color:#CC0000"/></linearGradient><path d="M127.907227,395.290039h-6.549805l0.664062-6.549805h6.539551L127.907227,395.290039z" fill="url(#SVGID_14_)"/><linearGradient gradientUnits="userSpaceOnUse" id="SVGID_15_" x1="171.462402" x2="171.462402" y1="396.344727" y2="341.613464"><stop offset="0" style="stop-color:#B30000"/><stop offset="1" style="stop-color:#CC0000"/></linearGradient><path d="M172.892578,366.666016l1.464844,1.630859l-2.284668,22.902344     c-0.761719,2.1875-2.266602,3.542969-4.499512,4.09082l-1.797363-6.549805l1.709961-17.171875L172.892578,366.666016z      M168.635742,360.116211l1.718262-17.174805l3.10498-6.549805c2.129395,0.558594,3.35791,1.914062,3.689941,4.098633     l-2.293457,22.896484l-1.807617,1.639648L168.635742,360.116211z" fill="url(#SVGID_15_)"/><linearGradient gradientUnits="userSpaceOnUse" id="SVGID_16_" x1="198.57373" x2="198.57373" y1="396.344727" y2="341.613464"><stop offset="0" style="stop-color:#B30000"/><stop offset="1" style="stop-color:#CC0000"/></linearGradient><path d="M208.47998,395.290039h-24.544434c-2.129395-0.547852-3.359863-1.90332-3.681641-4.09082     l6.794922-2.458984h19.623047L208.47998,395.290039z M180.411621,389.560547l2.137695-21.263672l1.79541-1.630859     l4.412109,4.902344l-1.552246,15.541016L180.411621,389.560547z M191.461426,344.573242l-1.561035,15.542969l-5.389648,4.910156     l-1.473633-1.639648l2.119141-21.264648L191.461426,344.573242z M213.70166,342.941406h-21.995605l-6.296875-2.451172     c0.759766-2.18457,2.264648-3.540039,4.491211-4.098633h26.914062L213.70166,342.941406z M210.928711,362.567383     l2.947266,3.279297l-3.603027,3.268555h-21.260742l-2.949219-3.268555l3.592773-3.279297H210.928711z M215.428223,366.666016     l1.465332,1.630859l-2.285156,22.902344c-0.761719,2.1875-2.26416,3.542969-4.499512,4.09082l-1.797363-6.549805     l1.708008-17.171875L215.428223,366.666016z" fill="url(#SVGID_16_)"/><linearGradient gradientUnits="userSpaceOnUse" id="SVGID_17_" x1="225.983887" x2="225.983887" y1="396.344727" y2="341.583527"><stop offset="0" style="stop-color:#B30000"/><stop offset="1" style="stop-color:#CC0000"/></linearGradient><path d="M228.922852,395.290039h-6.541992l0.653809-6.549805h6.552246L228.922852,395.290039z" fill="url(#SVGID_17_)"/><linearGradient gradientUnits="userSpaceOnUse" id="SVGID_18_" x1="286.257812" x2="286.257812" y1="396.344727" y2="341.613464"><stop offset="0" style="stop-color:#B30000"/><stop offset="1" style="stop-color:#CC0000"/></linearGradient><path d="M297.219727,395.290039h-26.993164c-2.126953-0.547852-3.357422-1.90332-3.679688-4.09082     l6.794922-2.458984h22.083008L297.219727,395.290039z M266.703125,389.560547l2.137695-21.263672l1.794922-1.630859     l4.414062,4.902344l-1.553711,15.541016L266.703125,389.560547z M297.541992,342.941406H277.99707l-6.294922-2.451172     c0.759766-2.18457,2.264648-3.540039,4.489258-4.098633h24.46582L297.541992,342.941406z M297.219727,362.567383     l2.949219,3.279297l-3.602539,3.268555h-21.262695l-2.949219-3.268555l3.594727-3.279297H297.219727z M297.464844,360.116211     l1.71875-17.174805l3.102539-6.549805c2.128906,0.558594,3.360352,1.914062,3.681641,4.098633l-2.285156,22.896484     l-1.805664,1.639648L297.464844,360.116211z" fill="url(#SVGID_18_)"/><linearGradient gradientUnits="userSpaceOnUse" id="SVGID_19_" x1="328.794922" x2="328.794922" y1="396.344727" y2="341.613464"><stop offset="0" style="stop-color:#B30000"/><stop offset="1" style="stop-color:#CC0000"/></linearGradient><path d="M337.306641,395.290039h-24.543945c-2.126953-0.547852-3.357422-1.90332-3.679688-4.09082     l6.794922-2.458984h19.623047L337.306641,395.290039z M309.239258,389.560547l2.137695-21.263672l1.796875-1.630859     l4.412109,4.902344l-1.551758,15.541016L309.239258,389.560547z M320.290039,344.573242l-1.5625,15.542969l-5.387695,4.910156     l-1.484375-1.639648l2.12793-21.264648L320.290039,344.573242z M340.080078,342.941406h-19.546875l-6.304688-2.451172     c0.771484-2.18457,2.274414-3.540039,4.499023-4.098633h24.464844L340.080078,342.941406z M339.755859,362.567383     l2.938477,3.279297l-3.600586,3.268555h-21.262695l-2.938477-3.268555l3.591797-3.279297H339.755859z M344.259766,366.666016     l1.462891,1.630859l-2.285156,22.902344c-0.761719,2.1875-2.263672,3.542969-4.499023,4.09082l-1.797852-6.549805     l1.708008-17.171875L344.259766,366.666016z M340.000977,360.116211l1.71875-17.174805l3.104492-6.549805     c2.128906,0.558594,3.358398,1.914062,3.681641,4.098633l-2.294922,22.896484l-1.797852,1.639648L340.000977,360.116211z" fill="url(#SVGID_19_)"/><linearGradient gradientUnits="userSpaceOnUse" id="SVGID_20_" x1="354.8125" x2="354.8125" y1="396.344727" y2="341.583527"><stop offset="0" style="stop-color:#B30000"/><stop offset="1" style="stop-color:#CC0000"/></linearGradient><path d="M357.75,395.290039h-6.540039l0.654297-6.549805h6.549805L357.75,395.290039z" fill="url(#SVGID_20_)"/><linearGradient gradientUnits="userSpaceOnUse" id="SVGID_21_" x1="386.057617" x2="386.057617" y1="396.344727" y2="341.613464"><stop offset="0" style="stop-color:#B30000"/><stop offset="1" style="stop-color:#CC0000"/></linearGradient><path d="M394.566406,395.290039h-24.544922c-2.118164-0.547852-3.347656-1.90332-3.679688-4.09082     l6.794922-2.458984h19.631836L394.566406,395.290039z M366.507812,389.560547l2.12793-21.263672l1.796875-1.630859     l4.422852,4.902344l-1.5625,15.541016L366.507812,389.560547z M377.549805,344.573242l-1.552734,15.542969l-5.398438,4.910156     l-1.475586-1.639648l2.129883-21.264648L377.549805,344.573242z M397.348633,342.941406h-19.554688l-6.296875-2.451172     c0.759766-2.18457,2.264648-3.540039,4.5-4.098633h24.457031L397.348633,342.941406z M397.016602,362.567383l2.947266,3.279297     l-3.600586,3.268555h-21.264648l-2.949219-3.268555l3.594727-3.279297H397.016602z M401.516602,366.666016l1.464844,1.630859     l-2.282227,22.902344c-0.763672,2.1875-2.266602,3.542969-4.494141,4.09082l-1.804688-6.549805l1.717773-17.171875     L401.516602,366.666016z M397.261719,360.116211l1.71875-17.174805l3.113281-6.549805     c2.117188,0.558594,3.349609,1.914062,3.679688,4.098633l-2.293945,22.896484l-1.805664,1.639648L397.261719,360.116211z" fill="url(#SVGID_21_)"/><linearGradient gradientUnits="userSpaceOnUse" id="SVGID_22_" x1="428.59375" x2="428.59375" y1="396.344727" y2="341.613464"><stop offset="0" style="stop-color:#B30000"/><stop offset="1" style="stop-color:#CC0000"/></linearGradient><path d="M437.101562,395.290039h-24.543945c-2.117188-0.547852-3.347656-1.90332-3.679688-4.09082     l6.794922-2.458984h19.631836L437.101562,395.290039z M409.03418,389.560547l2.137695-21.263672l1.796875-1.630859     l4.412109,4.902344l-1.551758,15.541016L409.03418,389.560547z M420.087891,344.573242l-1.56543,15.542969l-5.387695,4.910156     l-1.473633-1.639648l2.117188-21.264648L420.087891,344.573242z M439.875,342.941406h-19.544922l-6.296875-2.451172     c0.761719-2.18457,2.264648-3.540039,4.489258-4.098633h24.46582L439.875,342.941406z M439.552734,362.567383l2.949219,3.279297     l-3.602539,3.268555h-21.264648l-2.947266-3.268555l3.592773-3.279297H439.552734z M444.054688,366.666016l1.462891,1.630859     l-2.285156,22.902344c-0.759766,2.1875-2.261719,3.542969-4.499023,4.09082l-1.797852-6.549805l1.710938-17.171875     L444.054688,366.666016z M439.797852,360.116211l1.71875-17.174805l3.102539-6.549805     c2.128906,0.558594,3.360352,1.914062,3.69043,4.098633l-2.293945,22.896484l-1.807617,1.639648L439.797852,360.116211z" fill="url(#SVGID_22_)"/></g></g><g><g><linearGradient gradientUnits="userSpaceOnUse" id="SVGID_23_" x1="98.90332" x2="98.903313" y1="251.839844" y2="144.843994"><stop offset="0" style="stop-color:#0A0B0D"/><stop offset="1" style="stop-color:#232526"/></linearGradient><path d="M51.394531,142.429199c-4.140625,0-7.492188,3.352051-7.492188,7.494629v95.006836     c0,4.140625,3.351562,7.502441,7.492188,7.502441h95.017578c4.134277,0,7.492188-3.361816,7.492188-7.502441v-21.958008     L73.36084,142.429199H51.394531z" fill="url(#SVGID_23_)"/><linearGradient gradientUnits="userSpaceOnUse" id="SVGID_24_" x1="98.903809" x2="98.903801" y1="249.778809" y2="146.835052"><stop offset="0" style="stop-color:#050607"/><stop offset="1" style="stop-color:#1E1F20"/></linearGradient><path d="M51.394531,250.349609c-2.989746,0-5.40918-2.429199-5.40918-5.418945v-95.006836     c0-2.990723,2.419434-5.412109,5.40918-5.412109h21.10498l79.322754,79.323242v21.095703     c0,2.989746-2.423828,5.418945-5.410156,5.418945H51.394531z" fill="url(#SVGID_24_)"/><linearGradient gradientUnits="userSpaceOnUse" id="SVGID_25_" x1="98.904297" x2="98.904289" y1="247.717285" y2="148.826569"><stop offset="0" style="stop-color:#000000"/><stop offset="1" style="stop-color:#18191A"/></linearGradient><path d="M51.394531,248.265625c-1.838867,0-3.32666-1.496094-3.32666-3.334961v-95.006836     c0-1.838867,1.487793-3.329102,3.32666-3.329102h20.243652l78.102539,78.102539v20.233398     c0,1.838867-1.489746,3.334961-3.328613,3.334961H51.394531z" fill="url(#SVGID_25_)"/></g><linearGradient gradientUnits="userSpaceOnUse" id="SVGID_26_" x1="257.213867" x2="257.213867" y1="274.696289" y2="214.196289"><stop offset="0.066667" style="stop-color:#2F3133"/><stop offset="0.09697" style="stop-color:#616266"/><stop offset="0.430303" style="stop-color:#939399"/><stop offset="0.454545" style="stop-color:#A3A3A9"/><stop offset="1" style="stop-color:#C6C6CC"/></linearGradient><path d="M26.746582,214.569336c-0.020508,0.259277-0.141113-0.261719-0.141113,0v52.09375    c0,4.603516,3.578125,8.331055,7.999023,8.331055h445.209961c4.420898,0,7.998047-3.727539,7.998047-8.331055v-52.09375    c0-0.261719,0.023438,0.259277,0,0H26.746582z" fill="url(#SVGID_26_)"/><linearGradient gradientUnits="userSpaceOnUse" id="SVGID_27_" x1="257.208984" x2="257.208984" y1="206.64209" y2="213.956131"><stop offset="0" style="stop-color:#313133"/><stop offset="0.406061" style="stop-color:#626266"/><stop offset="0.563636" style="stop-color:#6C6C70"/><stop offset="1" style="stop-color:#959599"/></linearGradient><path d="M479.814453,206.294434H34.604492c-4.420898,0-7.999023,3.669434-7.999023,8.274902H487.8125    C487.8125,209.963867,484.235352,206.294434,479.814453,206.294434z" fill="url(#SVGID_27_)"/><path d="M72.086426,214.569336H26.605469v52.09375c0,0.925781,0.236816,1.789062,0.510742,2.617188    L72.086426,214.569336z" fill="#303033"/><polygon fill="#303033" points="82.395508,274.994141 142.377441,274.994141 192.050781,214.569336 132.070801,214.569336   "/><polygon fill="#303033" points="202.361328,274.994141 262.34668,274.994141 312.017578,214.569336 252.034668,214.569336   "/><polygon fill="#303033" points="322.326172,274.994141 382.310547,274.994141 431.983398,214.569336 372.001953,214.569336   "/><path d="M479.814453,274.994141c4.420898,0,7.998047-3.727539,7.998047-8.331055v-46.984375l-45.517578,55.31543    H479.814453z" fill="#303033"/><linearGradient gradientUnits="userSpaceOnUse" id="SVGID_28_" x1="257.208984" x2="257.208984" y1="209.702148" y2="244.138672"><stop offset="0" style="stop-color:#FFFFFF"/><stop offset="1" style="stop-color:#FFFFFF;stop-opacity:0"/></linearGradient><rect fill="url(#SVGID_28_)" height="27.694336" opacity="0.4" width="461.207031" x="26.605469" y="214.569336"/><path d="M34.604492,206.294434c-4.420898,0-7.999023,3.669434-7.999023,8.274902h45.480957l3.999512-8.274902    H34.604492z" fill="#48484D"/><polygon fill="#48484D" points="135.779297,206.294434 196.052246,206.294434 192.050781,214.569336 131.780273,214.569336   "/><polygon fill="#48484D" points="255.745605,206.294434 316.017578,206.294434 312.017578,214.569336 251.744141,214.569336   "/><polygon fill="#48484D" points="375.710938,206.294434 435.983398,206.294434 431.983398,214.569336 371.710938,214.569336   "/><linearGradient gradientTransform="matrix(0.9511 -0.309 0.309 0.9511 47.164062 -114.572266)" gradientUnits="userSpaceOnUse" id="SVGID_29_" x1="114.70166" x2="114.70166" y1="298.861328" y2="238.351562"><stop offset="0.066667" style="stop-color:#2F3133"/><stop offset="0.09697" style="stop-color:#616266"/><stop offset="0.430303" style="stop-color:#939399"/><stop offset="0.454545" style="stop-color:#A3A3A9"/><stop offset="1" style="stop-color:#C6C6CC"/></linearGradient><path d="M10.84082,148.259277c0.062012,0.25293-0.211914-0.203613-0.132812,0.043457l16.09668,49.54248    c1.423828,4.379395,5.977539,6.817871,10.182129,5.452148L460.405273,65.719238    c4.204102-1.365723,6.454102-6.014648,5.03418-10.393555L449.34082,5.780762    c-0.081055-0.244629-0.03125,0.286621-0.134766,0.045898L10.84082,148.259277z" fill="url(#SVGID_29_)"/><linearGradient gradientTransform="matrix(0.9511 -0.309 0.309 0.9511 47.164062 -114.572266)" gradientUnits="userSpaceOnUse" id="SVGID_30_" x1="114.700684" x2="114.700684" y1="230.798828" y2="238.123657"><stop offset="0" style="stop-color:#313133"/><stop offset="0.406061" style="stop-color:#626266"/><stop offset="0.563636" style="stop-color:#6C6C70"/><stop offset="1" style="stop-color:#959599"/></linearGradient><path d="M439.177734,0.384766L15.759277,137.960938    c-4.20459,1.365723-6.475098,5.960449-5.05127,10.341797L449.34082,5.780762    C447.918945,1.401855,443.381836-0.980957,439.177734,0.384766z" fill="url(#SVGID_30_)"/><path d="M53.961914,134.248047l-43.253906,14.054688l16.09668,49.54248    c0.288574,0.882324,0.776367,1.631348,1.29541,2.333008L53.961914,134.248047z" fill="#303033"/><polygon fill="#303033" points="82.438965,188.530762 139.486328,169.993164 168.056641,97.178711 111.009277,115.712402   "/><polygon fill="#303033" points="196.533691,151.45752 253.581055,132.921875 282.150391,60.105469 225.104004,78.641113   "/><polygon fill="#303033" points="310.628906,114.38623 367.674805,95.850586 396.245117,23.03418 339.199219,41.569824   "/><path d="M460.405273,65.719238c4.204102-1.365723,6.454102-6.014648,5.03418-10.393555l-14.519531-44.684082    l-26.198242,66.67334L460.405273,65.719238z" fill="#303033"/><linearGradient gradientTransform="matrix(0.9511 -0.309 0.309 0.9511 47.164062 -114.572266)" gradientUnits="userSpaceOnUse" id="SVGID_31_" x1="114.700684" x2="114.700684" y1="233.853516" y2="268.309448"><stop offset="0" style="stop-color:#FFFFFF"/><stop offset="1" style="stop-color:#FFFFFF;stop-opacity:0"/></linearGradient><polygon fill="url(#SVGID_31_)" opacity="0.4" points="457.897461,32.12207 19.26709,174.64209 10.708008,148.302734     449.34082,5.780762   "/><path d="M15.759277,137.960938c-4.20459,1.365723-6.475098,5.960449-5.05127,10.341797l43.253906-14.054688    l1.24707-9.10498L15.759277,137.960938z" fill="#48484D"/><polygon fill="#48484D" points="111.980469,106.696777 169.303711,88.071777 168.056641,97.178711 110.735352,115.801758   "/><polygon fill="#48484D" points="226.075195,69.625488 283.397461,51.000488 282.150391,60.105469 224.828125,78.72998   "/><polygon fill="#48484D" points="340.170898,32.553711 397.492188,13.929199 396.245117,23.03418 338.921875,41.658691   "/><g/><g><linearGradient gradientUnits="userSpaceOnUse" id="SVGID_32_" x1="94.73877" x2="94.738762" y1="260.172852" y2="153.176056"><stop offset="0" style="stop-color:#000000"/><stop offset="1" style="stop-color:#18191A"/></linearGradient><path d="M47.231445,150.760254c-4.142578,0-7.494629,3.351562-7.494629,7.494141v95.006836     c0,4.141113,3.352051,7.504395,7.494629,7.504395h95.015137c4.132324,0,7.494141-3.363281,7.494141-7.504395v-21.958008     l-80.542969-80.542969H47.231445z" fill="url(#SVGID_32_)"/><linearGradient gradientUnits="userSpaceOnUse" id="SVGID_33_" x1="94.738281" x2="94.738274" y1="259.602539" y2="153.160065"><stop offset="0" style="stop-color:#040404"/><stop offset="0.945455" style="stop-color:#1E1F22"/><stop offset="0.975758" style="stop-color:#282A2E"/><stop offset="1" style="stop-color:#292B2F"/></linearGradient><path d="M47.231445,260.140625c-3.796387,0-6.870605-3.083984-6.870605-6.879395v-95.006836     c0-3.794922,3.074219-6.869141,6.870605-6.869141h21.707031l80.177246,80.177246v21.69873     c0,3.79541-3.082031,6.879395-6.869141,6.879395H47.231445z" fill="url(#SVGID_33_)"/><linearGradient gradientUnits="userSpaceOnUse" id="SVGID_34_" x1="94.737305" x2="94.737297" y1="259.030273" y2="153.158752"><stop offset="0" style="stop-color:#080809"/><stop offset="0.945455" style="stop-color:#25262A"/><stop offset="0.975758" style="stop-color:#3A3C44"/><stop offset="1" style="stop-color:#3A3D44"/></linearGradient><path d="M47.231445,259.513672c-3.451172,0-6.24707-2.802734-6.24707-6.25293v-95.006836     c0-3.447266,2.795898-6.244141,6.24707-6.244141h21.447266l79.811523,79.811523v21.439453     c0,3.450195-2.802734,6.25293-6.244141,6.25293H47.231445z" fill="url(#SVGID_34_)"/><linearGradient gradientUnits="userSpaceOnUse" id="SVGID_35_" x1="94.73584" x2="94.735832" y1="258.458008" y2="153.171234"><stop offset="0" style="stop-color:#0C0C0D"/><stop offset="0.945455" style="stop-color:#2B2D33"/><stop offset="0.975758" style="stop-color:#4B4E59"/><stop offset="1" style="stop-color:#4B4F59"/></linearGradient><path d="M47.231445,258.888672c-3.105469,0-5.624023-2.523438-5.624023-5.62793v-95.006836     c0-3.100586,2.518555-5.619141,5.624023-5.619141h21.1875l79.445312,79.445312v21.180664     c0,3.104492-2.522461,5.62793-5.618164,5.62793H47.231445z" fill="url(#SVGID_35_)"/><linearGradient gradientUnits="userSpaceOnUse" id="SVGID_36_" x1="94.735352" x2="94.735344" y1="257.883789" y2="153.197937"><stop offset="0" style="stop-color:#101011"/><stop offset="0.945455" style="stop-color:#32353C"/><stop offset="0.975758" style="stop-color:#5C616E"/><stop offset="1" style="stop-color:#5D616F"/></linearGradient><path d="M47.231445,258.262695c-2.759277,0-5-2.243164-5-5.001953v-95.006836     c0-2.75293,2.240723-4.994141,5-4.994141h20.928711l79.079102,79.080078v20.920898     c0,2.758789-2.243164,5.001953-4.993164,5.001953H47.231445z" fill="url(#SVGID_36_)"/><linearGradient gradientUnits="userSpaceOnUse" id="SVGID_37_" x1="94.734863" x2="94.734856" y1="257.30957" y2="153.239349"><stop offset="0" style="stop-color:#141416"/><stop offset="0.945455" style="stop-color:#393C44"/><stop offset="0.975758" style="stop-color:#6E7384"/><stop offset="1" style="stop-color:#6E7384"/></linearGradient><path d="M47.231445,257.637695c-2.413086,0-4.375977-1.963379-4.375977-4.376465v-95.006836     c0-2.405762,1.962891-4.369141,4.375977-4.369141h20.669434l78.713379,78.713867v20.662109     c0,2.413086-1.963379,4.376465-4.367676,4.376465H47.231445z" fill="url(#SVGID_37_)"/><linearGradient gradientUnits="userSpaceOnUse" id="SVGID_38_" x1="94.733887" x2="94.733879" y1="256.73291" y2="153.294037"><stop offset="0" style="stop-color:#18181A"/><stop offset="0.945455" style="stop-color:#40434D"/><stop offset="0.975758" style="stop-color:#7F8599"/></linearGradient><path d="M47.231445,257.011719c-2.067383,0-3.752441-1.683105-3.752441-3.750488v-95.006836     c0-2.058594,1.685059-3.744141,3.752441-3.744141h20.409668l78.347656,78.347656v20.40332     c0,2.067383-1.683594,3.750488-3.742188,3.750488H47.231445z" fill="url(#SVGID_38_)"/></g><linearGradient gradientUnits="userSpaceOnUse" id="SVGID_39_" x1="102.644531" x2="99.873672" y1="188.745117" y2="191.515976"><stop offset="0" style="stop-color:#FFFFFF"/><stop offset="1" style="stop-color:#FFFFFF;stop-opacity:0"/></linearGradient><path d="M67.641113,154.510254H47.231445c-2.067383,0-3.752441,1.685547-3.752441,3.744141    v3.748047c0-2.064941,1.685059-3.748047,3.752441-3.748047h20.409668l78.347656,78.345215v-3.741699L67.641113,154.510254z" fill="url(#SVGID_39_)" opacity="0.3"/><linearGradient gradientUnits="userSpaceOnUse" id="SVGID_40_" x1="61.057129" x2="61.057129" y1="162.686035" y2="182.794571"><stop offset="0" style="stop-color:#626366"/><stop offset="1" style="stop-color:#949699"/></linearGradient><path d="M70.855957,172.84082c0,5.402344-4.393555,9.795898-9.802246,9.795898    c-5.418945,0-9.795898-4.393555-9.795898-9.795898s4.376953-9.796387,9.795898-9.796387    C66.462402,163.044434,70.855957,167.438477,70.855957,172.84082z" fill="url(#SVGID_40_)" opacity="0.5"/><radialGradient cx="60.705566" cy="165.805664" gradientTransform="matrix(1 0 0 0.402839 0 99.012672)" gradientUnits="userSpaceOnUse" id="SVGID_41_" r="22.063951"><stop offset="0.236364" style="stop-color:#F5F6F7"/><stop offset="0.8" style="stop-color:#4B4B4D"/><stop offset="0.909091" style="stop-color:#4B4B4D"/><stop offset="1" style="stop-color:#717173"/></radialGradient><path d="M69.782715,172.84082c0,4.814941-3.905762,8.729004-8.729004,8.729004    c-4.817383,0-8.723145-3.914062-8.723145-8.729004c0-4.81543,3.905762-8.729492,8.723145-8.729492    C65.876953,164.111328,69.782715,168.025391,69.782715,172.84082z" fill="url(#SVGID_41_)"/><linearGradient gradientUnits="userSpaceOnUse" id="SVGID_42_" x1="61.057129" x2="61.057129" y1="230.164062" y2="250.278625"><stop offset="0" style="stop-color:#626366"/><stop offset="1" style="stop-color:#949699"/></linearGradient><path d="M70.855957,240.325195c0,5.404297-4.393555,9.795898-9.802246,9.795898    c-5.418945,0-9.795898-4.391602-9.795898-9.795898c0-5.408691,4.376953-9.802246,9.795898-9.802246    C66.462402,230.522949,70.855957,234.916504,70.855957,240.325195z" fill="url(#SVGID_42_)" opacity="0.5"/><radialGradient cx="60.705566" cy="233.291504" gradientTransform="matrix(1 0 0 0.402839 0 139.312592)" gradientUnits="userSpaceOnUse" id="SVGID_43_" r="22.054199"><stop offset="0.236364" style="stop-color:#F5F6F7"/><stop offset="0.8" style="stop-color:#4B4B4D"/><stop offset="0.909091" style="stop-color:#3E3E40"/><stop offset="1" style="stop-color:#646466"/></radialGradient><path d="M69.782715,240.325195c0,4.817383-3.905762,8.721191-8.729004,8.721191    c-4.817383,0-8.723145-3.903809-8.723145-8.721191c0-4.823242,3.905762-8.727051,8.723145-8.727051    C65.876953,231.598145,69.782715,235.501953,69.782715,240.325195z" fill="url(#SVGID_43_)"/><linearGradient gradientUnits="userSpaceOnUse" id="SVGID_44_" x1="128.538574" x2="128.538574" y1="230.164062" y2="250.278625"><stop offset="0" style="stop-color:#626366"/><stop offset="1" style="stop-color:#949699"/></linearGradient><path d="M138.334473,240.325195c0,5.404297-4.394043,9.795898-9.796387,9.795898    c-5.418945,0-9.795898-4.391602-9.795898-9.795898c0-5.408691,4.376953-9.802246,9.795898-9.802246    C133.94043,230.522949,138.334473,234.916504,138.334473,240.325195z" fill="url(#SVGID_44_)" opacity="0.5"/><radialGradient cx="128.186523" cy="233.291504" gradientTransform="matrix(1 0 0 0.402839 0 139.312592)" gradientUnits="userSpaceOnUse" id="SVGID_45_" r="22.056564"><stop offset="0.236364" style="stop-color:#F5F6F7"/><stop offset="0.8" style="stop-color:#4B4B4D"/><stop offset="0.909091" style="stop-color:#3E3E40"/><stop offset="1" style="stop-color:#646466"/></radialGradient><path d="M137.267578,240.325195c0,4.817383-3.914062,8.721191-8.729492,8.721191    c-4.816895,0-8.729004-3.903809-8.729004-8.721191c0-4.823242,3.912109-8.727051,8.729004-8.727051    C133.353516,231.598145,137.267578,235.501953,137.267578,240.325195z" fill="url(#SVGID_45_)"/><linearGradient gradientUnits="userSpaceOnUse" id="SVGID_46_" x1="257.208984" x2="257.208984" y1="276.417969" y2="288.913727"><stop offset="0" style="stop-color:#232122"/><stop offset="1" style="stop-color:#232122;stop-opacity:0"/></linearGradient><rect fill="url(#SVGID_46_)" height="15.310547" opacity="0.7" width="461.207031" x="26.605469" y="274.994141"/></g></g></svg>
